<?xml version="1.0" encoding="UTF-8" standalone="no"?>
<!-- Created with Inkscape (http://www.inkscape.org/) -->

<svg
   width="183.27415mm"
   height="183.27414mm"
   viewBox="0 0 183.27415 183.27414"
   version="1.1"
   id="svg1"
   xml:space="preserve"
   sodipodi:docname="fetch.svg"
   inkscape:version="1.4.3 (0d15f75042, 2025-12-25)"
   xmlns:inkscape="http://www.inkscape.org/namespaces/inkscape"
   xmlns:sodipodi="http://sodipodi.sourceforge.net/DTD/sodipodi-0.dtd"
   xmlns:xlink="http://www.w3.org/1999/xlink"
   xmlns="http://www.w3.org/2000/svg"
   xmlns:svg="http://www.w3.org/2000/svg"><sodipodi:namedview
     id="namedview1"
     pagecolor="#000000"
     bordercolor="#000000"
     borderopacity="0.25"
     inkscape:showpageshadow="2"
     inkscape:pageopacity="0.0"
     inkscape:pagecheckerboard="0"
     inkscape:deskcolor="#d1d1d1"
     inkscape:document-units="mm"
     inkscape:zoom="1.0333895"
     inkscape:cx="306.27368"
     inkscape:cy="284.50067"
     inkscape:window-width="3440"
     inkscape:window-height="1368"
     inkscape:window-x="0"
     inkscape:window-y="0"
     inkscape:window-maximized="1"
     inkscape:current-layer="g19" /><defs
     id="defs1"><linearGradient
       id="linearGradient29"
       inkscape:collect="always"><stop
         style="stop-color:#0dfb66;stop-opacity:1;"
         offset="0"
         id="stop29" /><stop
         style="stop-color:#47b1ff;stop-opacity:1;"
         offset="1"
         id="stop30" /></linearGradient><linearGradient
       id="linearGradient24"
       inkscape:collect="always"><stop
         style="stop-color:#0dfb66;stop-opacity:1;"
         offset="0"
         id="stop24" /><stop
         style="stop-color:#47b1ff;stop-opacity:1;"
         offset="1"
         id="stop25" /></linearGradient><linearGradient
       id="linearGradient4"
       inkscape:collect="always"><stop
         style="stop-color:#ffffff;stop-opacity:1;"
         offset="0"
         id="stop4" /><stop
         style="stop-color:#ffffff;stop-opacity:0;"
         offset="1"
         id="stop5" /></linearGradient><linearGradient
       id="linearGradient2"
       inkscape:collect="always"><stop
         style="stop-color:#47b1ff;stop-opacity:1;"
         offset="0"
         id="stop2" /><stop
         style="stop-color:#0dfb66;stop-opacity:1;"
         offset="1"
         id="stop3" /></linearGradient><linearGradient
       inkscape:collect="always"
       xlink:href="#linearGradient2"
       id="linearGradient3"
       x1="143.76118"
       y1="143.76118"
       x2="39.512939"
       y2="39.512939"
       gradientUnits="userSpaceOnUse"
       gradientTransform="translate(13.362923,56.86293)" /><linearGradient
       inkscape:collect="always"
       xlink:href="#linearGradient4"
       id="linearGradient5"
       x1="-169.18269"
       y1="132.90295"
       x2="-157.78703"
       y2="132.90295"
       gradientUnits="userSpaceOnUse" /><linearGradient
       inkscape:collect="always"
       xlink:href="#linearGradient24"
       id="linearGradient25"
       x1="24.161525"
       y1="149.03196"
       x2="185.83847"
       y2="149.03196"
       gradientUnits="userSpaceOnUse"
       gradientTransform="matrix(0.850721,0,0,0.850721,15.668637,22.488582)" /><linearGradient
       inkscape:collect="always"
       xlink:href="#linearGradient29"
       id="linearGradient30"
       x1="36.175781"
       y1="149.03125"
       x2="173.82422"
       y2="149.03125"
       gradientUnits="userSpaceOnUse"
       gradientTransform="matrix(-1.0007747,0,0,1,210.08129,-15.875004)" /><linearGradient
       inkscape:collect="always"
       xlink:href="#linearGradient29"
       id="linearGradient31"
       gradientUnits="userSpaceOnUse"
       x1="36.175781"
       y1="149.03125"
       x2="173.82422"
       y2="149.03125"
       gradientTransform="matrix(-1.0007747,0,0,1,210.08129,-15.875004)" /><linearGradient
       inkscape:collect="always"
       xlink:href="#linearGradient29"
       id="linearGradient32"
       gradientUnits="userSpaceOnUse"
       x1="36.175781"
       y1="149.03125"
       x2="173.82422"
       y2="149.03125"
       gradientTransform="matrix(-1.0007747,0,0,1,210.08129,-15.875004)" /><linearGradient
       inkscape:collect="always"
       xlink:href="#linearGradient29"
       id="linearGradient33"
       gradientUnits="userSpaceOnUse"
       x1="36.175781"
       y1="149.03125"
       x2="173.82422"
       y2="149.03125"
       gradientTransform="matrix(-1.0007747,0,0,1,210.08129,-15.875004)" /><linearGradient
       inkscape:collect="always"
       xlink:href="#linearGradient29"
       id="linearGradient35"
       gradientUnits="userSpaceOnUse"
       gradientTransform="matrix(1.0006924,0,0,1,-0.06698711,14.861931)"
       x1="36.175781"
       y1="149.03125"
       x2="173.82422"
       y2="149.03125" /><linearGradient
       inkscape:collect="always"
       xlink:href="#linearGradient29"
       id="linearGradient36"
       gradientUnits="userSpaceOnUse"
       gradientTransform="matrix(1.0006924,0,0,1,-0.06698711,14.861931)"
       x1="36.175781"
       y1="149.03125"
       x2="173.82422"
       y2="149.03125" /><linearGradient
       inkscape:collect="always"
       xlink:href="#linearGradient29"
       id="linearGradient37"
       gradientUnits="userSpaceOnUse"
       gradientTransform="matrix(1.0006924,0,0,1,-0.06698711,14.861931)"
       x1="36.175781"
       y1="149.03125"
       x2="173.82422"
       y2="149.03125" /><linearGradient
       inkscape:collect="always"
       xlink:href="#linearGradient29"
       id="linearGradient38"
       gradientUnits="userSpaceOnUse"
       gradientTransform="matrix(1.0006924,0,0,1,-0.06698711,14.861931)"
       x1="36.175781"
       y1="149.03125"
       x2="173.82422"
       y2="149.03125" /></defs><g
     inkscape:label="Layer 1"
     inkscape:groupmode="layer"
     id="layer1"
     transform="translate(-13.362923,-56.86293)"><g
       id="g19"><path
         id="ellipse14"
         style="fill:#ffffff;stroke-width:26.4583;paint-order:stroke fill markers"
         d="M 196.63708,148.5 A 91.637077,91.63707 0 0 1 105,240.13707 91.637077,91.63707 0 0 1 13.362923,148.5 91.637077,91.63707 0 0 1 105,56.86293 91.637077,91.63707 0 0 1 196.63708,148.5 Z" /><path
         id="path1"
         style="fill:#ffffff;stroke:url(#linearGradient3);stroke-width:26.4583;paint-order:stroke fill markers"
         d="M 178.71466,148.5 A 73.714661,73.714653 0 0 1 105,222.21465 73.714661,73.714653 0 0 1 31.285339,148.5 73.714661,73.714653 0 0 1 105,74.785347 73.714661,73.714653 0 0 1 178.71466,148.5 Z" /><g
         id="g38"
         transform="translate(0.00570181,-0.7732015)"><g
           id="path25"
           style="fill:url(#linearGradient30)"
           transform="matrix(-0.88763146,0,0,1,198.1956,25.929171)"><path
             style="baseline-shift:baseline;display:inline;overflow:visible;vector-effect:none;fill:url(#linearGradient31);fill-opacity:1;paint-order:stroke fill markers;enable-background:accumulate;stop-color:#000000;stop-opacity:1"
             d="m 36.175781,147.70898 v 2.64649 H 171.29102 v -2.64649 z"
             id="path29" /><g
             id="g28"
             style="fill:url(#linearGradient33);fill-opacity:1"><path
               style="baseline-shift:baseline;display:inline;overflow:visible;opacity:1;vector-effect:none;fill:url(#linearGradient32);fill-opacity:1;stroke-linecap:round;enable-background:accumulate;stop-color:#000000;stop-opacity:1"
               d="m 163.08008,140.1582 a 1.322915,1.322915 0 0 0 0,1.8711 l 7.00195,7.00195 -7.00195,7.00195 a 1.322915,1.322915 0 0 0 0,1.8711 1.322915,1.322915 0 0 0 1.87109,0 l 8.87305,-8.87305 -8.87305,-8.87305 a 1.322915,1.322915 0 0 0 -1.87109,0 z"
               id="path28" /></g></g><path
           d="m 36.223352,164.74086 v -30.93532 h 21.207364 v 5.23326 H 42.469501 v 7.32234 h 12.914335 v 5.23326 H 42.469501 v 13.14646 z m 26.356217,0 v -30.93532 h 22.937716 v 5.23326 H 68.825718 v 6.8581 h 15.530965 v 5.21216 H 68.825718 v 8.41964 h 17.282419 v 5.21216 z m 35.788748,0 V 139.0388 H 89.18901 v -5.23326 h 24.58366 v 5.23326 h -9.1582 v 25.70206 z m 39.228353,-11.3739 6.05623,1.92027 q -1.39272,5.06444 -4.64241,7.53336 -3.22858,2.44782 -8.20862,2.44782 -6.16174,0 -10.12889,-4.19927 -3.96715,-4.22037 -3.96715,-11.52162 0,-7.72327 3.98825,-11.98585 3.98825,-4.28368 10.48762,-4.28368 5.6764,0 9.22151,3.3552 2.11019,1.98357 3.16528,5.6975 l -6.18284,1.47713 q -0.54865,-2.40561 -2.3001,-3.79833 -1.73036,-1.39273 -4.22037,-1.39273 -3.43961,0 -5.592,2.46892 -2.13128,2.46892 -2.13128,7.9976 0,5.86632 2.11018,8.35634 2.11019,2.49002 5.48648,2.49002 2.49002,0 4.28368,-1.58264 1.79366,-1.58264 2.57443,-4.98004 z m 11.4372,11.3739 v -30.93532 h 6.24615 v 12.17577 h 12.23907 v -12.17577 h 6.24615 v 30.93532 h -6.24615 v -13.52629 h -12.23907 v 13.52629 z"
           id="text23"
           style="font-weight:bold;font-size:43.2166px;font-family:Arial;-inkscape-font-specification:'Arial Bold';fill:url(#linearGradient25);stroke-width:22.5086;paint-order:stroke fill markers"
           aria-label="FETCH" /><g
           id="g35"
           style="fill:url(#linearGradient38)"
           transform="matrix(0.88770449,0,0,1,11.785325,-25.445271)"><path
             style="baseline-shift:baseline;display:inline;overflow:visible;vector-effect:none;fill:url(#linearGradient35);fill-opacity:1;paint-order:stroke fill markers;enable-background:accumulate;stop-color:#000000;stop-opacity:1"
             d="m 36.175781,147.70898 v 2.64649 H 171.29102 v -2.64649 z"
             id="path33" /><g
             id="g34"
             style="fill:url(#linearGradient37);fill-opacity:1"><path
               style="baseline-shift:baseline;display:inline;overflow:visible;opacity:1;vector-effect:none;fill:url(#linearGradient36);fill-opacity:1;stroke-linecap:round;enable-background:accumulate;stop-color:#000000;stop-opacity:1"
               d="m 163.08008,140.1582 a 1.322915,1.322915 0 0 0 0,1.8711 l 7.00195,7.00195 -7.00195,7.00195 a 1.322915,1.322915 0 0 0 0,1.8711 1.322915,1.322915 0 0 0 1.87109,0 l 8.87305,-8.87305 -8.87305,-8.87305 a 1.322915,1.322915 0 0 0 -1.87109,0 z"
               id="path34" /></g></g></g></g></g></svg>
