<?xml version="1.0" encoding="UTF-8" standalone="no"?>
<!-- Created with Inkscape (http://www.inkscape.org/) -->

<svg
   width="183.27415mm"
   height="183.27414mm"
   viewBox="0 0 183.27415 183.27414"
   version="1.1"
   id="svg1"
   xml:space="preserve"
   sodipodi:docname="fetch.svg"
   inkscape:version="1.4.3 (0d15f75042, 2025-12-25)"
   xmlns:inkscape="http://www.inkscape.org/namespaces/inkscape"
   xmlns:sodipodi="http://sodipodi.sourceforge.net/DTD/sodipodi-0.dtd"
   xmlns:xlink="http://www.w3.org/1999/xlink"
   xmlns="http://www.w3.org/2000/svg"
   xmlns:svg="http://www.w3.org/2000/svg"><sodipodi:namedview
     id="namedview1"
     pagecolor="#000000"
     bordercolor="#000000"
     borderopacity="0.25"
     inkscape:showpageshadow="2"
     inkscape:pageopacity="0.0"
     inkscape:pagecheckerboard="0"
     inkscape:deskcolor="#d1d1d1"
     inkscape:document-units="mm"
     inkscape:zoom="1.0333895"
     inkscape:cx="-194.50557"
     inkscape:cy="386.10806"
     inkscape:window-width="3440"
     inkscape:window-height="1368"
     inkscape:window-x="0"
     inkscape:window-y="0"
     inkscape:window-maximized="1"
     inkscape:current-layer="layer1" /><defs
     id="defs1"><linearGradient
       id="linearGradient13"
       inkscape:collect="always"><stop
         style="stop-color:#3cbfe2;stop-opacity:1;"
         offset="0"
         id="stop13" /><stop
         style="stop-color:#0dfb66;stop-opacity:1;"
         offset="1"
         id="stop14" /></linearGradient><linearGradient
       id="linearGradient4"
       inkscape:collect="always"><stop
         style="stop-color:#ffffff;stop-opacity:1;"
         offset="0"
         id="stop4" /><stop
         style="stop-color:#ffffff;stop-opacity:0;"
         offset="1"
         id="stop5" /></linearGradient><linearGradient
       id="linearGradient2"
       inkscape:collect="always"><stop
         style="stop-color:#47b1ff;stop-opacity:1;"
         offset="0"
         id="stop2" /><stop
         style="stop-color:#0dfb66;stop-opacity:1;"
         offset="1"
         id="stop3" /></linearGradient><linearGradient
       inkscape:collect="always"
       xlink:href="#linearGradient2"
       id="linearGradient3"
       x1="143.76118"
       y1="143.76118"
       x2="39.512939"
       y2="39.512939"
       gradientUnits="userSpaceOnUse"
       gradientTransform="translate(13.362923,56.86293)" /><linearGradient
       inkscape:collect="always"
       xlink:href="#linearGradient4"
       id="linearGradient5"
       x1="-169.18269"
       y1="132.90295"
       x2="-157.78703"
       y2="132.90295"
       gradientUnits="userSpaceOnUse" /><linearGradient
       inkscape:collect="always"
       xlink:href="#linearGradient13"
       id="linearGradient14"
       x1="143.76122"
       y1="143.7612"
       x2="39.51302"
       y2="39.513004"
       gradientUnits="userSpaceOnUse"
       gradientTransform="translate(13.362923,56.86293)" /></defs><g
     inkscape:label="Layer 1"
     inkscape:groupmode="layer"
     id="layer1"
     transform="translate(-13.362923,-56.86293)"><ellipse
       style="fill:#ffffff;stroke:none;stroke-width:26.4583;stroke-dasharray:none;paint-order:stroke fill markers"
       id="ellipse14"
       cx="105"
       cy="148.5"
       rx="91.637077"
       ry="91.63707" /><ellipse
       style="fill:#ffffff;stroke:url(#linearGradient3);stroke-width:26.4583;stroke-dasharray:none;paint-order:stroke fill markers"
       id="path1"
       cx="105"
       cy="148.5"
       rx="73.714661"
       ry="73.714653" /><g
       id="text9"
       style="font-weight:bold;font-size:42.9478px;font-family:Arial;-inkscape-font-specification:'Arial Bold';text-align:center;text-anchor:middle;fill:url(#linearGradient14);stroke-width:26.4583;paint-order:stroke fill markers"
       aria-label="FET→&#10;→CH"><path
         d="m 45.39105,136.76695 v -30.7429 h 21.075458 v 5.20071 H 51.598349 v 7.2768 h 12.83401 v 5.20071 h -12.83401 v 13.06468 z m 26.192287,0 v -30.7429 h 22.795048 v 5.20071 H 77.790636 v 6.81544 h 15.434365 v 5.17974 H 77.790636 v 8.36727 h 17.174926 v 5.17974 z m 35.566143,0 v -25.54219 h -9.122211 v -5.20071 h 24.430751 v 5.20071 h -9.10124 v 25.54219 z m 48.7986,-23.66192 c 1.85939,2.02716 3.46714,3.572 4.82324,4.63451 1.3561,1.04853 2.63531,1.83143 3.83762,2.3487 v 0.94368 c -1.38406,0.67106 -2.72618,1.53086 -4.02635,2.57939 -1.30018,1.03455 -2.85201,2.55841 -4.65548,4.57159 h -1.61473 c 1.31415,-2.81006 2.69122,-4.97003 4.13121,-6.47992 h -33.44812 v -2.11803 h 33.44812 c -1.06251,-1.34212 -1.80348,-2.34172 -2.22289,-2.9988 -0.41941,-0.67106 -1.04154,-1.83143 -1.86638,-3.48112 z"
         id="path18"
         sodipodi:nodetypes="ccccccccccccccccccccccccccccccccccccccccccccccc" /><path
         d="m 84.375405,168.37728 c 1.859394,2.02716 3.46714,3.572 4.823239,4.63451 1.356099,1.04853 2.635306,1.83143 3.837621,2.3487 v 0.94368 c -1.38406,0.67106 -2.726179,1.53086 -4.026356,2.57939 -1.300177,1.03455 -2.852002,2.55841 -4.655475,4.57159 h -1.614736 c 1.314158,-2.81006 2.691228,-4.97003 4.131209,-6.47992 H 53.422792 v -2.11803 h 33.448115 c -1.062511,-1.34212 -1.803472,-2.34172 -2.222884,-2.9988 -0.419412,-0.67106 -1.04154,-1.83143 -1.866384,-3.48112 z m 33.133555,10.77127 6.01857,1.90832 c -0.92271,3.3553 -2.46055,5.8508 -4.61354,7.48651 -2.139,1.62173 -4.85819,2.43259 -8.15756,2.43259 -4.08228,0 -7.43758,-1.39105 -10.06589,-4.17315 -2.628319,-2.79608 -3.942478,-6.61273 -3.942478,-11.44995 0,-5.11683 1.321149,-9.08727 3.963448,-11.91131 2.64229,-2.83802 6.11642,-4.25703 10.42239,-4.25703 3.76073,0 6.81544,1.11144 9.16415,3.33433 1.39804,1.31415 2.44657,3.20151 3.14559,5.66206 l -6.14438,1.46794 c -0.36349,-1.59377 -1.12543,-2.852 -2.2858,-3.77471 -1.14639,-0.92271 -2.54443,-1.38406 -4.19412,-1.38406 -2.27881,0 -4.13121,0.81785 -5.55721,2.45356 -1.41202,1.63571 -2.11803,4.28499 -2.11803,7.94786 0,3.88655 0.69902,6.65467 2.09706,8.30436 1.39804,1.64969 3.21549,2.47453 5.45235,2.47453 1.64969,0 3.06871,-0.52426 4.25704,-1.57279 1.18833,-1.04853 2.04114,-2.69822 2.55841,-4.94906 z m 11.36607,11.30315 v -30.74291 h 6.2073 v 12.10004 h 12.16295 v -12.10004 h 6.2073 v 30.74291 h -6.2073 v -13.44216 h -12.16295 v 13.44216 z"
         id="path19"
         sodipodi:nodetypes="cccccccccccccccccscscsccccscsssscccccccccccccc" /></g></g></svg>
